<?xml version="1.0" encoding="utf-8"?>
<svg id="master-artboard" viewBox="0 0 648.3571166992188 623.0000610351562" version="1.1" xmlns="http://www.w3.org/2000/svg" x="0px" y="0px" style="enable-background:new 0 0 336 235.2;" width="648.3571166992188px" height="623.0000610351562px"><rect id="ee-background" x="0" y="0" width="648.3571166992188" height="623.0000610351562" style="fill: white; fill-opacity: 0; pointer-events: none;"/><g transform="matrix(28.4375, 0, 0, 28.4375, -17.071449279785156, -29.142833709716797)"><path fill="none" d="M0 0h24v24H0V0z"/><path d="M12 2C8.13 2 5 5.13 5 9c0 5.25 7 13 7 13s7-7.75 7-13c0-3.87-3.13-7-7-7zM7 9c0-2.76 2.24-5 5-5s5 2.24 5 5c0 2.88-2.88 7.19-5 9.88C9.92 16.21 7 11.85 7 9z" style="fill: rgb(5, 203, 170);"/><path d="M 14.5 9 A 2.5 2.5 0 0 1 12 11.5 A 2.5 2.5 0 0 1 9.5 9 A 2.5 2.5 0 0 1 12 6.5 A 2.5 2.5 0 0 1 14.5 9 Z" style="fill: rgb(5, 203, 170);"/><path d="M 6.045838832855225 9.117738723754883" style="fill: rgb(5, 203, 170); fill-opacity: 1; stroke: rgb(0, 0, 0); stroke-opacity: 1; stroke-width: 0; paint-order: fill;"/></g></svg>