<?xml version="1.0" encoding="utf-8"?>
<svg id="master-artboard" viewBox="0 0 845.0714111328125 682.5000610351562" version="1.1" xmlns="http://www.w3.org/2000/svg" x="0px" y="0px" style="enable-background:new 0 0 336 235.2;" width="845.0714111328125px" height="682.5000610351562px"><rect id="ee-background" x="0" y="0" width="845.0714111328125" height="682.5000610351562" style="fill: white; fill-opacity: 0; pointer-events: none;"/><g transform="matrix(40.83333206176758, 0, 0, 40.83333206176758, -68.07142639160156, -149.3571319580078)"><path fill="none" d="M0 0h24v24H0V0z"/><path d="M22 6c0-1.1-.9-2-2-2H4c-1.1 0-2 .9-2 2v12c0 1.1.9 2 2 2h16c1.1 0 2-.9 2-2V6zm-2 0l-8 5-8-5h16zm0 12H4V8l8 5 8-5v10z" style="fill: rgb(5, 203, 170);"/></g></svg>